<svg width="186" height="89" viewBox="0 0 186 89" fill="none" xmlns="http://www.w3.org/2000/svg">
<path d="M1.58685 15.3073C0.125592 16.0882 -0.425912 17.9059 0.355035 19.3671C1.13598 20.8284 2.95365 21.3799 4.41491 20.599L1.58685 15.3073ZM174.118 88.3674C175.701 88.8547 177.38 87.9661 177.867 86.3825L185.809 60.577C186.297 58.9935 185.408 57.3147 183.825 56.8273C182.241 56.3399 180.562 57.2286 180.075 58.8121L173.015 81.7504L150.077 74.6908C148.493 74.2035 146.815 75.0921 146.327 76.6757C145.84 78.2592 146.729 79.938 148.312 80.4254L174.118 88.3674ZM4.41491 20.599C42.7063 0.134777 77.7751 3.94862 106.73 19.1675C135.825 34.46 158.811 61.328 172.349 86.9036L177.652 84.0966C163.689 57.7195 139.926 29.8374 109.521 13.8564C78.9763 -2.19832 41.7955 -6.18161 1.58685 15.3073L4.41491 20.599Z" fill="white"/>
</svg>
