<svg width="247" height="51" viewBox="0 0 247 51" fill="none" xmlns="http://www.w3.org/2000/svg">
<path d="M2.67556 5.01769C1.0284 5.19665 -0.161813 6.67702 0.0171494 8.32418C0.196112 9.97134 1.67648 11.1615 3.32364 10.9826L2.67556 5.01769ZM245.372 37.6678C246.845 36.9099 247.425 35.1011 246.667 33.6278L234.316 9.6185C233.558 8.14517 231.749 7.56523 230.276 8.32317C228.803 9.08111 228.223 10.8899 228.981 12.3632L239.96 33.7048L218.618 44.6838C217.145 45.4417 216.565 47.2505 217.323 48.7238C218.081 50.1971 219.889 50.7771 221.363 50.0191L245.372 37.6678ZM3.32364 10.9826C93.4182 1.19388 145.69 6.63034 243.084 37.8569L244.916 32.1434C146.795 0.68375 93.6782 -4.86969 2.67556 5.01769L3.32364 10.9826Z" fill="white"/>
</svg>
