<svg width="135" height="144" viewBox="0 0 135 144" fill="none" xmlns="http://www.w3.org/2000/svg">
<path d="M131.999 142.982C133.646 142.803 134.837 141.323 134.658 139.676C134.479 138.029 132.998 136.839 131.351 137.017L131.999 142.982ZM1.62737 12.8324C0.154033 13.5903 -0.425898 15.3991 0.332031 16.8725L12.6833 40.8817C13.4413 42.3551 15.2501 42.935 16.7234 42.1771C18.1967 41.4191 18.7767 39.6103 18.0187 38.137L7.0398 16.7954L28.3814 5.8165C29.8547 5.05855 30.4346 3.24975 29.6767 1.77643C28.9188 0.303093 27.11 -0.276837 25.6366 0.481091L1.62737 12.8324ZM131.351 137.017C109.244 139.419 97.0488 134.877 89.249 126.995C81.1966 118.857 77.2782 106.71 72.9114 92.3217C68.6216 78.187 63.9654 62.2178 54.0847 47.8589C44.1219 33.3808 28.9617 20.6736 3.91567 12.6433L2.0838 18.3569C25.9165 25.9981 39.9615 37.919 49.1419 51.2602C58.4044 64.7206 62.8293 79.762 67.1701 94.0642C71.4338 108.113 75.6955 121.828 84.9841 131.215C94.5252 140.857 108.832 145.499 131.999 142.982L131.351 137.017Z" fill="white"/>
</svg>
