<svg width="198" height="125" viewBox="0 0 198 125" fill="none" xmlns="http://www.w3.org/2000/svg">
<path d="M192.149 2.06634C192.665 0.491765 194.359 -0.366661 195.934 0.148988C197.508 0.664637 198.367 2.35909 197.851 3.93366L192.149 2.06634ZM1.26175 103.498C0.15852 102.261 0.266285 100.365 1.50243 99.2618L21.6466 81.2836C22.8827 80.1804 24.7792 80.2882 25.8824 81.5243C26.9856 82.7605 26.8779 84.6569 25.6417 85.7601L7.7358 101.741L23.7163 119.647C24.8196 120.883 24.7118 122.779 23.4757 123.882C22.2395 124.986 20.3431 124.878 19.2399 123.642L1.26175 103.498ZM197.851 3.93366C183.585 47.4958 157.11 74.0321 122.95 88.9372C88.9427 103.775 47.516 107.006 3.32981 104.495L3.67017 98.5048C47.484 100.994 87.8073 97.7246 120.55 83.4378C153.14 69.2179 178.415 44.0042 192.149 2.06634L197.851 3.93366Z" fill="white"/>
</svg>
