<svg width="34" height="61" viewBox="0 0 34 61" fill="none" xmlns="http://www.w3.org/2000/svg">
<path d="M-486.744 4.04002L-486.796 4.05488L-487.051 3.15584C-486.796 4.05488 -486.796 4.05494 -486.796 4.05502L-486.797 4.05524L-486.8 4.05595L-486.809 4.05842L-486.841 4.06744C-486.869 4.07523 -486.91 4.08649 -486.963 4.10087C-487.069 4.12963 -487.224 4.17088 -487.422 4.22173C-487.818 4.32339 -488.387 4.46358 -489.085 4.61914C-490.477 4.92985 -492.39 5.30383 -494.463 5.55364C-496.53 5.80279 -498.787 5.93235 -500.857 5.74011C-502.906 5.54994 -504.9 5.03409 -506.326 3.88281C-507.345 3.05977 -508.768 2.60519 -510.425 2.43136C-512.074 2.25843 -513.872 2.37203 -515.559 2.61097C-517.24 2.84923 -518.78 3.20755 -519.9 3.50728C-520.371 3.6332 -520.767 3.74832 -521.066 3.8391V59.4561H32.127V5.14963C31.5286 5.53524 30.7667 5.92769 29.8436 6.21611C27.2368 7.03064 23.5093 6.9649 18.7845 3.94304C14.4686 1.18263 11.3094 1.24837 9.28973 1.87941C8.25928 2.20139 7.48248 2.68385 6.96655 3.08228C6.70892 3.28121 6.51831 3.45773 6.39587 3.57999C6.33472 3.64104 6.29083 3.68828 6.26434 3.71766C6.25116 3.73234 6.24231 3.74253 6.23785 3.74771L6.237 3.74863L6.23633 3.74945L6.23578 3.75017L6.23529 3.75069L6.2345 3.75166L6.15295 3.85133L6.04242 3.92697L5.51465 3.15584C6.04242 3.92697 6.04205 3.92724 6.04163 3.92752L6.04065 3.92819L6.03815 3.92987L6.03125 3.93453L6.00958 3.949C5.99164 3.96086 5.9668 3.9771 5.93524 3.99726C5.87207 4.03757 5.78198 4.0936 5.66656 4.16169C5.43579 4.2978 5.10297 4.48254 4.68103 4.68636C3.8385 5.0933 2.63196 5.58051 1.16638 5.90568C-1.77588 6.55848 -5.7724 6.55688 -9.91028 3.94613C-13.4989 1.68189 -18.4903 1.63772 -22.7501 2.24339C-24.8536 2.54248 -26.7238 2.99181 -28.0686 3.36684C-28.7402 3.55413 -29.2787 3.72231 -29.6473 3.84294C-29.8221 3.90015 -29.9586 3.94662 -30.0528 3.97931C-30.0943 4.01327 -30.1438 4.05276 -30.2011 4.09691C-30.3858 4.23931 -30.6524 4.43081 -30.9955 4.64136C-31.6807 5.06184 -32.6785 5.56293 -33.944 5.89693C-36.5039 6.57255 -40.0767 6.54047 -44.2472 3.94958C-47.919 1.6685 -51.9917 1.64749 -55.2207 2.23748C-56.8288 2.5313 -58.203 2.97274 -59.1741 3.34059C-59.6588 3.52422 -60.041 3.68869 -60.2991 3.8058C-60.4281 3.86434 -60.526 3.91097 -60.59 3.94214C-60.6136 3.95366 -60.6327 3.96306 -60.6469 3.97017C-60.6672 3.98282 -60.6942 3.99936 -60.7274 4.01944C-60.8035 4.0653 -60.9128 4.12969 -61.0531 4.20829C-61.3337 4.3654 -61.7389 4.57978 -62.2502 4.81677C-63.271 5.28992 -64.7245 5.85784 -66.4596 6.23708C-69.9339 6.99646 -74.5867 7.00576 -79.1077 3.9283C-83.0725 1.22949 -87.4273 1.20919 -90.8658 1.90345C-92.5813 2.2498 -94.0457 2.7703 -95.0807 3.20442C-95.5973 3.4211 -96.0045 3.61522 -96.2795 3.75353C-96.417 3.82266 -96.5213 3.87774 -96.5896 3.91461C-96.6088 3.92496 -96.6252 3.93387 -96.6386 3.94125L-96.6647 3.95569L-96.6812 3.96498L-96.6834 3.96623L-96.684 3.96653L-96.6841 3.96664L-96.7045 3.97833L-96.7262 3.98932L-97.1487 3.15584C-96.7262 3.98932 -96.7265 3.98948 -96.7269 3.98967L-96.7278 3.99016L-96.7306 3.99153L-96.7391 3.99582L-96.7686 4.01044C-96.7937 4.02279 -96.8295 4.04029 -96.8758 4.0624C-96.9682 4.1066 -97.1022 4.16927 -97.2741 4.24612C-97.6179 4.39976 -98.1143 4.61042 -98.735 4.84369C-99.9748 5.30956 -101.72 5.8693 -103.744 6.24309C-107.771 6.98667 -113.038 7.01766 -117.576 3.9283C-121.524 1.24123 -126.625 1.19984 -130.883 1.90923C-132.992 2.26069 -134.848 2.78879 -136.176 3.2296C-136.839 3.44971 -137.369 3.64726 -137.73 3.7888C-137.911 3.85954 -138.05 3.91622 -138.142 3.95463C-138.188 3.97383 -138.222 3.98847 -138.244 3.998L-138.255 4.00247L-138.256 4.0029L-138.259 4.00403L-138.266 4.00734L-138.268 4.00841L-138.273 4.01062L-486.744 4.04002ZM-486.744 4.04002L-486.694 4.01947L-486.694 4.01943L-486.694 4.01937L-486.693 4.01917L-486.691 4.01829L-486.675 4.01195C-486.66 4.00596 -486.637 3.99651 -486.604 3.98396C-486.54 3.95886 -486.441 3.92136 -486.31 3.87429C-486.048 3.78015 -485.66 3.64791 -485.163 3.50022C-484.169 3.20458 -482.748 2.84854 -481.051 2.61121C-477.648 2.13526 -473.194 2.14462 -468.854 4.01406C-464.089 6.06637 -459.076 6.05413 -455.3 5.5522C-453.406 5.30034 -451.804 4.92266 -450.673 4.60719C-450.107 4.44933 -449.658 4.30667 -449.348 4.20249C-449.192 4.15038 -449.072 4.10786 -448.989 4.07783C-448.959 4.06712 -448.934 4.05799 -448.914 4.05058M-486.744 4.04002L-448.914 4.05058M-448.914 4.05058C-448.89 4.04484 -448.858 4.03715 -448.818 4.02769C-448.718 4.00428 -448.57 3.97001 -448.378 3.92738C-447.994 3.8421 -447.435 3.72347 -446.741 3.59146C-445.352 3.3272 -443.427 3.01042 -441.286 2.79947C-436.942 2.37172 -431.926 2.40471 -428.599 3.99856C-424.768 5.83421 -419.442 5.80234 -415.222 5.37177C-413.085 5.15367 -411.178 4.82688 -409.805 4.55482C-409.118 4.41867 -408.564 4.29592 -408.18 4.20683C-407.987 4.16227 -407.838 4.12611 -407.735 4.10086C-407.684 4.08824 -407.644 4.07834 -407.617 4.07149L-407.586 4.06353L-407.577 4.06133L-407.575 4.06069L-407.574 4.06049C-407.574 4.06042 -407.574 4.06036 -407.808 3.15584L-407.574 4.06036L-407.563 4.05755L-407.553 4.0546L-407.552 4.05458L-407.552 4.05449L-407.552 4.05445L-407.548 4.05336L-407.529 4.04813C-407.512 4.04332 -407.485 4.03592 -407.449 4.02618C-407.376 4.00671 -407.266 3.97792 -407.122 3.94196C-406.833 3.87003 -406.407 3.76947 -405.867 3.65735C-404.785 3.43296 -403.248 3.16306 -401.436 2.98316C-397.798 2.6219 -393.12 2.63076 -388.804 4.0439C-384.141 5.57077 -379.201 5.56216 -375.466 5.18819C-373.591 5.0005 -372.003 4.71901 -370.881 4.48387C-370.32 4.36623 -369.874 4.25999 -369.567 4.18255C-369.413 4.14382 -369.294 4.11228 -369.212 4.09008C-369.171 4.07898 -369.14 4.07022 -369.118 4.06406L-369.092 4.05682L-369.085 4.05472L-369.082 4.05407L-369.082 4.05384C-369.081 4.05376 -369.081 4.05368 -369.34 3.15584L-369.081 4.05368L-369.035 4.04034L-368.991 4.02258L-368.991 4.02251L-368.99 4.02231L-368.988 4.02131L-368.971 4.01486C-368.956 4.0088 -368.931 3.99928 -368.898 3.98666C-368.831 3.96141 -368.729 3.92376 -368.595 3.87656C-368.327 3.78212 -367.929 3.64961 -367.421 3.50165C-366.405 3.20548 -364.957 2.84901 -363.236 2.61143C-359.782 2.13471 -355.301 2.14575 -351.026 4.01224C-346.322 6.06566 -341.489 6.05512 -337.872 5.55142C-336.058 5.29884 -334.533 4.92004 -333.459 4.60343C-332.922 4.445 -332.496 4.30175 -332.201 4.19698C-332.054 4.14458 -331.94 4.10177 -331.86 4.07144C-331.821 4.05628 -331.79 4.04423 -331.768 4.03567L-331.743 4.02547L-331.735 4.02241L-331.733 4.02141L-331.732 4.02104C-331.732 4.0209 -331.731 4.02076 -332.075 3.18042L-331.731 4.02077L-448.914 4.05058ZM-138.289 4.01804L-138.274 4.01096L-253.613 4.03332L-253.613 4.03322L-253.612 4.03293L-253.606 4.03076L-253.579 4.02093L-253.539 4.00686C-253.519 3.99953 -253.493 3.99075 -253.464 3.98061C-253.362 3.94503 -253.207 3.8927 -253.007 3.82749C-252.605 3.69703 -252.017 3.51516 -251.281 3.31262C-249.806 2.90714 -247.743 2.42083 -245.389 2.09697C-240.643 1.44411 -234.885 1.47547 -230.359 3.97391C-225.331 6.7496 -220.606 6.75143 -217.148 6.05656C-215.423 5.70987 -214.011 5.18989 -213.027 4.75464C-212.535 4.53678 -212.148 4.33941 -211.88 4.19426C-211.746 4.12165 -211.642 4.06202 -211.57 4.01931C-211.562 4.01475 -211.554 4.01039 -211.547 4.00622C-211.54 4.00362 -211.532 4.00085 -211.523 3.99793C-211.447 3.97209 -211.331 3.93385 -211.18 3.88607C-210.877 3.79047 -210.432 3.65681 -209.87 3.50778C-208.745 3.20943 -207.159 2.85112 -205.319 2.61245C-201.616 2.13198 -197.001 2.15174 -193.048 4.00212C-188.628 6.07169 -183.627 6.05235 -179.804 5.55246C-177.882 5.301 -176.229 4.92409 -175.055 4.60974C-174.468 4.45241 -173.999 4.31034 -173.675 4.20678C-173.513 4.15498 -173.387 4.11278 -173.3 4.08306C-173.256 4.0682 -173.223 4.05646 -173.199 4.0482L-173.172 4.03846L-173.164 4.03563L-173.161 4.03474L-173.161 4.03443C-173.16 4.03431 -173.16 4.03421 -173.479 3.15584L-173.16 4.03421L-173.144 4.02853L-173.129 4.02257L-173.129 4.02248L-173.129 4.02231L-173.126 4.02126L-173.11 4.01475C-173.094 4.00865 -173.07 3.99909 -173.036 3.98644C-172.969 3.96112 -172.868 3.92341 -172.734 3.87615C-172.466 3.7816 -172.07 3.64901 -171.567 3.50101C-170.56 3.20471 -169.13 2.84843 -167.447 2.61105C-164.067 2.13414 -159.752 2.14909 -155.794 4.00212C-151.386 6.06557 -146.997 6.05744 -143.74 5.54918C-142.109 5.29459 -140.749 4.91278 -139.794 4.59332C-139.316 4.43343 -138.937 4.2887 -138.676 4.18251C-138.545 4.1294 -138.443 4.08588 -138.372 4.05486C-138.337 4.03934 -138.309 4.02695 -138.289 4.01804ZM-331.728 4.01952L-331.728 4.01939L-331.727 4.01917L-331.726 4.01847L-331.71 4.01231C-331.696 4.00644 -331.672 3.99711 -331.64 3.98466C-331.575 3.95977 -331.476 3.92246 -331.344 3.87557C-331.08 3.78176 -330.685 3.64974 -330.176 3.50216C-329.155 3.20684 -327.677 2.8502 -325.865 2.61226C-322.239 2.13603 -317.299 2.13818 -312.014 4.03534C-306.374 6.05959 -300.938 6.05514 -296.929 5.55311C-294.921 5.30176 -293.262 4.92458 -292.101 4.60882C-291.52 4.45085 -291.063 4.30802 -290.748 4.20355C-290.59 4.1513 -290.468 4.10862 -290.384 4.07841C-290.342 4.0633 -290.31 4.05131 -290.287 4.04279L-290.272 4.03695L-290.26 4.03266L-331.728 4.01952Z" fill="#275918" stroke="#2F641E" stroke-width="1.86889"/>
</svg>
