<svg width="31" height="62" viewBox="0 0 31 62" fill="none" xmlns="http://www.w3.org/2000/svg">
<path d="M36.8229 3.53068L36.7693 3.54587L36.5089 2.62689C36.7693 3.54587 36.7691 3.54593 36.7688 3.54601L36.768 3.54623L36.7654 3.54696L36.7565 3.54949L36.7234 3.55871C36.6946 3.56667 36.6528 3.57818 36.5985 3.59288C36.4899 3.62228 36.3315 3.66444 36.1291 3.71641C35.7242 3.82034 35.1426 3.96363 34.4298 4.12264C33.0062 4.44025 31.0509 4.82252 28.9326 5.07786C26.8197 5.33254 24.5129 5.46497 22.3961 5.26847C20.302 5.07408 18.2634 4.54679 16.8062 3.36998C15.7645 2.52869 14.3105 2.06403 12.6164 1.88634C10.931 1.70958 9.09273 1.82569 7.36887 2.06994C5.64997 2.31349 4.07652 2.67975 2.93083 2.98613C2.44953 3.11484 2.04545 3.23251 1.73984 3.32531V60.1756H567.2V4.66487C566.588 5.05903 565.809 5.4602 564.866 5.75502C562.201 6.58762 558.391 6.52042 553.561 3.43155C549.15 0.609926 545.92 0.677125 543.856 1.32215C542.803 1.65127 542.009 2.14443 541.481 2.5517C541.218 2.75504 541.023 2.93548 540.898 3.06045C540.835 3.12285 540.791 3.17114 540.763 3.20117C540.75 3.21618 540.741 3.22659 540.736 3.23189L540.735 3.23283L540.735 3.23366L540.734 3.23493L540.734 3.23505L540.733 3.23593L540.65 3.3378L540.537 3.41512L539.997 2.62689C540.537 3.41512 540.536 3.4154 540.536 3.41569L540.535 3.41637L540.532 3.41808L540.525 3.42285L540.503 3.43764C540.485 3.44976 540.459 3.46636 540.427 3.48697C540.362 3.52818 540.27 3.58545 540.152 3.65505C539.917 3.79417 539.576 3.98301 539.145 4.19135C538.284 4.60732 537.05 5.10533 535.552 5.43771C532.545 6.10499 528.46 6.10335 524.23 3.4347C520.562 1.12025 515.46 1.07511 511.106 1.69421C508.955 1.99993 507.044 2.45922 505.669 2.84257C504.983 3.03402 504.432 3.20592 504.055 3.32923C503.877 3.38771 503.737 3.43521 503.641 3.46863C503.599 3.50334 503.548 3.5437 503.489 3.58883C503.301 3.73438 503.028 3.93013 502.677 4.14536C501.977 4.57516 500.957 5.08736 499.663 5.42876C497.047 6.11937 493.395 6.08657 489.132 3.43824C485.379 1.10656 481.216 1.08509 477.915 1.68816C476.271 1.98851 474.867 2.43973 473.874 2.81574C473.378 3.00344 472.988 3.17155 472.724 3.29127C472.592 3.3511 472.492 3.39876 472.427 3.43063C472.402 3.44239 472.383 3.45199 472.368 3.45926C472.348 3.47218 472.32 3.4891 472.286 3.50964C472.208 3.55652 472.097 3.62233 471.953 3.70268C471.666 3.86328 471.252 4.08241 470.73 4.32465C469.686 4.8083 468.2 5.3888 466.427 5.77646C462.876 6.55268 458.12 6.56219 453.498 3.41648C449.446 0.657819 444.994 0.637077 441.479 1.34673C439.726 1.70076 438.229 2.2328 437.171 2.67655C436.643 2.89803 436.227 3.09646 435.946 3.23784C435.805 3.3085 435.698 3.3648 435.629 3.40249C435.594 3.42133 435.568 3.4355 435.552 3.44448L435.535 3.45397L435.533 3.45526L435.532 3.45556L435.532 3.45567L435.532 3.45573L435.511 3.46762L435.489 3.47885L435.057 2.62689C435.489 3.47885 435.489 3.47902 435.488 3.47921L435.487 3.47971L435.485 3.48111L435.476 3.4855L435.446 3.50044C435.42 3.51307 435.383 3.53096 435.336 3.55355C435.242 3.59874 435.105 3.6628 434.929 3.74135C434.578 3.8984 434.07 4.11372 433.436 4.35217C432.168 4.82837 430.384 5.40052 428.315 5.78261C424.2 6.54268 418.816 6.57435 414.177 3.41648C410.142 0.669828 404.928 0.627521 400.575 1.35263C398.419 1.71189 396.522 2.2517 395.164 2.70229C394.486 2.92727 393.945 3.12921 393.576 3.27388C393.391 3.34619 393.249 3.40413 393.155 3.44339L393.121 3.45773C393.091 3.47044 393.067 3.48051 393.05 3.48773L393.039 3.49229L393.038 3.49273L393.036 3.49389L393.028 3.49727L393.026 3.49837L393.021 3.50063L36.8229 3.53068ZM36.8229 3.53068L36.8736 3.50968L36.8737 3.50963L36.8739 3.50957L36.8744 3.50936L36.8766 3.50846L36.8926 3.50198C36.9079 3.49586 36.9322 3.4862 36.9653 3.47338C37.0314 3.44772 37.1325 3.40938 37.2662 3.36128C37.5336 3.26504 37.9308 3.12987 38.4384 2.97891C39.4543 2.67671 40.907 2.31277 42.6417 2.07018C46.1205 1.58368 50.6731 1.59324 55.1095 3.50414C59.98 5.60196 65.104 5.58945 68.9633 5.0764C70.8999 4.81894 72.5374 4.43289 73.6934 4.11043C74.2718 3.94906 74.731 3.80324 75.0482 3.69675C75.2069 3.64349 75.3301 3.60003 75.4152 3.56933C75.4455 3.55837 75.471 3.54904 75.4915 3.54147M36.8229 3.53068L75.4915 3.54147M75.4915 3.54147C75.5159 3.5356 75.5488 3.52774 75.5898 3.51808C75.6914 3.49414 75.8428 3.45911 76.0391 3.41554C76.4317 3.32837 77.0031 3.20711 77.7125 3.07217C79.1325 2.80205 81.0996 2.47825 83.289 2.26262C87.7284 1.82538 92.8562 1.8591 96.2568 3.4883C100.173 5.36466 105.617 5.33208 109.93 4.89196C112.115 4.66903 114.064 4.33499 115.467 4.05689C116.169 3.91772 116.736 3.79225 117.129 3.70119C117.326 3.65564 117.479 3.61868 117.583 3.59287C117.636 3.57997 117.676 3.56985 117.704 3.56284L117.736 3.55471L117.745 3.55246L117.747 3.55181L117.748 3.5516C117.748 3.55153 117.748 3.55147 117.509 2.62689L117.748 3.55147L117.759 3.5486L117.77 3.54558L117.77 3.54556L117.77 3.54547L117.771 3.54543L117.775 3.54431L117.794 3.53897C117.811 3.53405 117.839 3.52648 117.876 3.51653C117.951 3.49663 118.063 3.46721 118.211 3.43045C118.506 3.35692 118.941 3.25413 119.493 3.13952C120.599 2.91015 122.17 2.63427 124.022 2.45038C127.741 2.08111 132.522 2.09017 136.934 3.53464C141.701 5.09537 146.75 5.08657 150.568 4.70431C152.484 4.51246 154.108 4.22472 155.255 3.98437C155.828 3.86412 156.284 3.75553 156.598 3.67637C156.755 3.63678 156.877 3.60454 156.961 3.58185C157.002 3.57051 157.035 3.56155 157.057 3.55526L157.084 3.54785L157.091 3.54571L157.093 3.54504L157.094 3.54481C157.094 3.54472 157.095 3.54464 156.83 2.62689L157.095 3.54464L157.142 3.531L157.187 3.51286L157.187 3.51278L157.188 3.51257L157.19 3.51156L157.207 3.50496C157.223 3.49877 157.248 3.48904 157.282 3.47613C157.35 3.45032 157.454 3.41184 157.591 3.36359C157.866 3.26706 158.273 3.13161 158.791 2.98037C159.83 2.67763 161.311 2.31326 163.07 2.07041C166.6 1.58311 171.18 1.5944 175.55 3.50228C180.359 5.60124 185.298 5.59047 188.996 5.0756C190.85 4.81741 192.409 4.43021 193.507 4.10659C194.056 3.94463 194.491 3.79821 194.792 3.69112C194.943 3.63756 195.06 3.5938 195.141 3.5628C195.181 3.5473 195.213 3.53499 195.235 3.52623L195.261 3.51581L195.268 3.51268L195.271 3.51166L195.272 3.51128C195.272 3.51113 195.273 3.511 194.921 2.65098L195.273 3.511L75.4915 3.54147ZM393.004 3.50821L393.02 3.50097L275.123 3.52382L275.123 3.52373L275.124 3.52344L275.13 3.52121L275.158 3.51117C275.184 3.50204 275.223 3.48814 275.275 3.46995C275.38 3.43358 275.538 3.3801 275.743 3.31343C276.153 3.18008 276.754 2.99418 277.507 2.78714C279.014 2.37268 281.124 1.87558 283.53 1.54454C288.381 0.877199 294.267 0.909255 298.893 3.4631C304.033 6.30034 308.863 6.30222 312.397 5.59193C314.16 5.23756 315.603 4.70605 316.609 4.26115C317.112 4.03846 317.508 3.83671 317.782 3.68833C317.918 3.61412 318.025 3.55317 318.099 3.50951C318.107 3.50486 318.114 3.50041 318.122 3.49615C318.129 3.49348 318.138 3.49065 318.147 3.48765C318.225 3.46124 318.343 3.42216 318.497 3.37331C318.807 3.27559 319.262 3.13897 319.836 2.98663C320.986 2.68167 322.607 2.31542 324.488 2.07145C328.273 1.58032 332.991 1.60053 337.031 3.49194C341.549 5.6074 346.662 5.58763 350.569 5.07666C352.534 4.81962 354.223 4.43435 355.423 4.11303C356.023 3.95221 356.503 3.807 356.834 3.70114C357 3.64819 357.129 3.60505 357.218 3.57468C357.262 3.55949 357.296 3.54748 357.32 3.53904L357.348 3.52908L357.356 3.52619L357.359 3.52528L357.36 3.52497C357.36 3.52485 357.36 3.52474 357.035 2.62689L357.36 3.52474L357.376 3.51894L357.391 3.51284L357.392 3.51275L357.392 3.51257L357.395 3.5115L357.412 3.50485C357.428 3.49861 357.453 3.48884 357.487 3.47591C357.555 3.45003 357.659 3.41148 357.796 3.36317C358.069 3.26653 358.474 3.13099 358.988 2.97972C360.018 2.67685 361.479 2.31266 363.199 2.07002C366.655 1.58253 371.066 1.59781 375.112 3.49194C379.617 5.60114 384.104 5.59283 387.433 5.0733C389.1 4.81307 390.49 4.42279 391.467 4.09624C391.955 3.93281 392.342 3.78487 392.609 3.67632C392.743 3.62204 392.847 3.57755 392.92 3.54584C392.956 3.52999 392.984 3.51732 393.004 3.50821ZM195.276 3.50972L195.276 3.50959L195.277 3.50936L195.278 3.50865L195.294 3.50235C195.309 3.49635 195.333 3.48681 195.366 3.47409C195.432 3.44865 195.533 3.41051 195.668 3.36258C195.938 3.2667 196.342 3.13174 196.863 2.98089C197.906 2.67903 199.416 2.31448 201.269 2.07125C204.975 1.58447 210.025 1.58666 215.428 3.5259C221.192 5.59503 226.749 5.59049 230.847 5.07732C232.899 4.8204 234.595 4.43485 235.782 4.11209C236.376 3.95062 236.843 3.80462 237.165 3.69783C237.326 3.64443 237.45 3.6008 237.537 3.56992C237.58 3.55448 237.613 3.54222 237.636 3.53351L237.652 3.52754L237.664 3.52315L195.276 3.50972Z" fill="#275918" stroke="#2F641E" stroke-width="1.91034"/>
</svg>
