<svg width="1920" height="273" viewBox="0 0 1920 273" fill="none" xmlns="http://www.w3.org/2000/svg">
<path d="M0 5H1920V255.356C1813.37 251.352 1650.12 276.906 1550.1 272.372C1390.52 265.137 1233 235.187 1090.75 228.833C940.248 222.109 880.741 220.402 750.415 217.823C614.67 215.137 462.039 266.962 349.056 272.372C210.58 279.001 102.799 230.429 0 255.356V5Z" fill="#E8F9FF"/>
<path d="M1919.5 0H0V196.5C140.67 194.421 130.5 175.5 239.5 175.5C366 173.243 346.345 210.138 534 206.839C732.558 203.348 930.064 158.339 1102 157C1281.08 155.605 1469.95 204.03 1619 206.839C1801.69 210.281 1783.88 187.057 1919.5 200V0Z" fill="#BFF0FF"/>
</svg>
