<svg width="1514" height="745" viewBox="0 0 1514 745" fill="none" xmlns="http://www.w3.org/2000/svg">
<path d="M1511.71 742.266V4C1254.62 160.49 1092.84 207.121 780.75 235.376V742.266H1511.71Z" fill="#BB9068" stroke="#682D18" stroke-width="3.93592"/>
<line x1="781.312" y1="270.518" x2="781.312" y2="742.266" stroke="#682D18" stroke-width="0.562274"/>
<line x1="846.536" y1="742.267" x2="846.536" y2="229.472" stroke="#682D18" stroke-width="2.81137"/>
<line x1="915.134" y1="221.038" x2="915.134" y2="742.266" stroke="#682D18" stroke-width="2.81137"/>
<line x1="977.827" y1="743.392" x2="977.827" y2="212.04" stroke="#682D18" stroke-width="2.81137"/>
<line x1="1045.44" y1="742.267" x2="1045.44" y2="197.985" stroke="#682D18" stroke-width="2.81137"/>
<line x1="1114.74" y1="183.366" x2="1114.74" y2="742.266" stroke="#682D18" stroke-width="2.81137"/>
<line x1="1243.22" y1="742.27" x2="1243.22" y2="141.754" stroke="#682D18" stroke-width="2.81137"/>
<line x1="1377.32" y1="742.272" x2="1377.32" y2="78.2183" stroke="#682D18" stroke-width="2.81137"/>
<line x1="1180.53" y1="163.124" x2="1180.53" y2="742.266" stroke="#682D18" stroke-width="2.81137"/>
<line x1="1309.29" y1="743.391" x2="1309.29" y2="114.768" stroke="#682D18" stroke-width="2.81137"/>
<line x1="1446.34" y1="742.267" x2="1446.34" y2="40.5444" stroke="#682D18" stroke-width="2.81137"/>
<line x1="1512.27" y1="236.782" x2="1512.27" y2="727.085" stroke="#682D18" stroke-width="0.562274"/>
<path d="M2.28113 742.266V4C259.369 160.49 421.146 207.121 733.238 235.376V742.266H2.28113Z" fill="#BB9068" stroke="#843D24" stroke-width="3.93592"/>
<line y1="-0.281137" x2="471.748" y2="-0.281137" transform="matrix(0 1 1 0 732.957 270.518)" stroke="#843D24" stroke-width="0.562274"/>
<line y1="-1.40569" x2="512.795" y2="-1.40569" transform="matrix(0 -1 -1 0 666.046 742.267)" stroke="#843D24" stroke-width="2.81137"/>
<line y1="-1.40569" x2="521.228" y2="-1.40569" transform="matrix(0 1 1 0 600.26 221.038)" stroke="#843D24" stroke-width="2.81137"/>
<line y1="-1.40569" x2="531.352" y2="-1.40569" transform="matrix(0 -1 -1 0 534.755 743.392)" stroke="#843D24" stroke-width="2.81137"/>
<line y1="-1.40569" x2="544.282" y2="-1.40569" transform="matrix(0 -1 -1 0 467.142 742.267)" stroke="#843D24" stroke-width="2.81137"/>
<line y1="-1.40569" x2="558.901" y2="-1.40569" transform="matrix(0 1 1 0 400.653 183.366)" stroke="#843D24" stroke-width="2.81137"/>
<line y1="-1.40569" x2="600.516" y2="-1.40569" transform="matrix(0 -1 -1 0 269.362 742.27)" stroke="#843D24" stroke-width="2.81137"/>
<line y1="-1.40569" x2="664.054" y2="-1.40569" transform="matrix(0 -1 -1 0 135.26 742.272)" stroke="#843D24" stroke-width="2.81137"/>
<line y1="-1.40569" x2="579.143" y2="-1.40569" transform="matrix(0 1 1 0 334.867 163.124)" stroke="#843D24" stroke-width="2.81137"/>
<line y1="-1.40569" x2="628.623" y2="-1.40569" transform="matrix(0 -1 -1 0 203.294 743.391)" stroke="#843D24" stroke-width="2.81137"/>
<line y1="-1.40569" x2="701.723" y2="-1.40569" transform="matrix(0 -1 -1 0 66.24 742.267)" stroke="#843D24" stroke-width="2.81137"/>
<line y1="-0.281137" x2="490.303" y2="-0.281137" transform="matrix(0 1 1 0 2.00012 236.782)" stroke="#843D24" stroke-width="0.562274"/>
</svg>
